<?xml version="1.0" encoding="UTF-8" standalone="no"?>
<svg
   height="128"
   width="128"
   version="1.1"
   id="svg7"
   sodipodi:docname="icon.svg"
   inkscape:version="1.4.2 (f4327f4, 2025-05-13)"
   xmlns:inkscape="http://www.inkscape.org/namespaces/inkscape"
   xmlns:sodipodi="http://sodipodi.sourceforge.net/DTD/sodipodi-0.dtd"
   xmlns="http://www.w3.org/2000/svg"
   xmlns:svg="http://www.w3.org/2000/svg">
  <defs
     id="defs7" />
  <sodipodi:namedview
     id="namedview7"
     pagecolor="#ffffff"
     bordercolor="#000000"
     borderopacity="0.25"
     inkscape:showpageshadow="2"
     inkscape:pageopacity="0.0"
     inkscape:pagecheckerboard="0"
     inkscape:deskcolor="#d1d1d1"
     inkscape:zoom="2.2792969"
     inkscape:cx="-109.90231"
     inkscape:cy="107.26992"
     inkscape:window-width="2560"
     inkscape:window-height="1369"
     inkscape:window-x="-8"
     inkscape:window-y="-8"
     inkscape:window-maximized="1"
     inkscape:current-layer="g4" />
  <rect
     x="2"
     y="2"
     width="124"
     height="124"
     rx="14"
     fill="#363d52"
     stroke="#212532"
     stroke-width="4"
     id="rect1" />
  <g
     inkscape:groupmode="layer"
     id="layer1"
     inkscape:label="Layer 1"
     transform="matrix(0.02950466,0,0,0.02950466,102.14153,53.686552)" />
  <g
     transform="scale(.101) translate(122 122)"
     id="g7">
    <g
       fill="#fff"
       id="g4">
      <path
         d="M105 673v33q407 354 814 0v-33z"
         id="path1" />
      <path
         fill="#478cbf"
         d="m 105,673 152,14 c 8,0.66667 13,5.33333 15,14 l 4,67 132,10 8,-61 c 1.33333,-7.33333 6.33333,-12.33333 15,-15 h 162 c 8.66667,2.66667 13.66667,7.66667 15,15 l 8,61 132,-10 4,-67 c 2,-8.66667 7,-13.33333 15,-14 L 919,673 V 427 c 20,-26 38.66667,-53 56,-81 C 951.66667,306.66667 900.00244,283.5018 876.79642,278.18088 860.47284,273.99852 836,267 810,285 c -26.66667,-24.66667 -56,-46 -88,-64 4.66667,-34 7.33333,-68 8,-102 -39.33333,-18.66667 -80.33333,-32.666667 -123,-42 -17.33333,28.66667 -32.66667,58.33333 -46,89 -32.66667,-4.66667 -65.33333,-4.66667 -98,0 -13.33333,-30.66667 -28.66667,-60.33333 -46,-89 -42.66667,9.333333 -83.66667,23.33333 -123,42 0.66667,34 3.33333,68 8,102 -32,18 -61.33333,39.33333 -88,64 -26,-18 -48.24331,-17.16517 -76.4384,-16.0792 -27.39489,0 -65.228267,37.74587 -88.5616,77.0792 17.333333,28 36,55 56,81 z m 0,33 v 39 c 0,276 813,276 813,0 v -39 l -134,12 -5,69 c -1.33333,6.66667 -6,11 -14,13 l -162,11 c -8,0 -13.33333,-3.66667 -16,-11 L 577,735 H 447 l -10,65 c -2.66667,7.33333 -8,11 -16,11 L 259,800 c -8,-2 -12.66667,-6.33333 -14,-13 l -5,-69 z"
         id="path2"
         style="fill:#e3b9e6;fill-opacity:1"
         sodipodi:nodetypes="ccccccccccccccccccccccccccccccccsscccccccccccccc" />
      <path
         d="m 514.42353,417.84835 c -57.34719,5.6e-4 -88.24851,3.55325 -128.79473,23.73793 -40.54623,20.1847 -89.31568,55.3475 -89.30434,83.8899 0.15851,7.10399 1.73014,14.18271 4.6919,21.13252 18.61402,-51.11139 107.93068,-84.639 212.29645,-84.74457 102.85662,0.10157 191.32982,32.58546 211.5532,82.77929 2.43397,-6.31886 3.7244,-12.73364 3.85574,-19.16724 0.0114,-28.5424 -43.38458,-61.2409 -87.47233,-81.21766 -41.58241,-18.84157 -69.47868,-26.40968 -126.82589,-26.41017 z"
         style="fill:#cca1d0;fill-opacity:1;stroke-width:1.69476"
         id="path12-5-7"
         sodipodi:nodetypes="cscccccsc" />
      <circle
         cx="725"
         cy="526"
         r="90"
         id="circle3" />
      <path
         d="M 524.16266,-36.244553 C 373.4017,-36.242953 292.27398,-24.613665 185.68134,42.999479 79.08869,110.61263 -49.122107,228.39832 -49.092307,324.00747 c 0.416693,23.7964 4.548395,47.50814 12.33462,70.78809 C 12.177017,223.58652 251.13848,28.050556 523.52388,28.043855 c 272.3854,-0.0067 500.81812,192.033085 553.98372,360.168565 6.3987,-21.16644 9.7911,-42.65416 10.1364,-64.20495 C 1087.674,228.39831 973.58963,118.86734 857.68663,51.950716 748.36989,-11.163333 674.92364,-36.242927 524.16266,-36.244553 Z"
         style="fill:#2b3046;fill-opacity:1;stroke-width:5.02921"
         id="path12"
         sodipodi:nodetypes="cscczccsc" />
      <path
         d="m 512.05754,225.51437 c -103.17588,10e-4 -159.15353,6.3928 -232.10205,42.70797 -72.94853,36.31519 -160.69182,99.57816 -160.67143,150.93006 0.28518,12.78111 3.11278,25.51674 8.44141,38.02046 33.48932,-91.95679 194.1829,-176.80261 381.95202,-176.99255 185.05395,0.18274 344.23002,83.15076 380.61482,173.45673 4.37906,-11.36855 6.70072,-22.90966 6.93703,-34.48464 0.0205,-51.3519 -78.05514,-110.18124 -157.37537,-146.12232 -74.81278,-33.89871 -124.6205,-47.51484 -227.79643,-47.51571 z"
         style="fill:#cca1d0;fill-opacity:1;stroke-width:3.04911"
         id="path12-5"
         sodipodi:nodetypes="cscccccsc" />
      <circle
         cx="299"
         cy="526"
         r="90"
         id="circle4" />
      <ellipse
         cx="511.52472"
         cy="612.00446"
         id="circle7"
         rx="90"
         ry="56.212551"
         style="stroke-width:0.790306" />
    </g>
    <g
       fill="#414042"
       id="g6">
      <circle
         cx="307"
         cy="532"
         r="60"
         id="circle5" />
      <circle
         cx="717"
         cy="532"
         r="60"
         id="circle6" />
      <circle
         cx="475.26419"
         cy="618.67914"
         r="25.444653"
         id="circle8"
         style="stroke-width:0.424078" />
      <circle
         cx="548.4541"
         cy="618.77228"
         r="25.444653"
         id="circle9"
         style="stroke-width:0.424078" />
    </g>
  </g>
</svg>
